<?xml version="1.0" encoding="UTF-8" standalone="no"?>
<!-- Created with Inkscape (http://www.inkscape.org/) -->

<svg
   version="1.1"
   id="svg1"
   width="1047.1633"
   height="1079.8645"
   viewBox="0 0 1047.1633 1079.8645"
   xmlns="http://www.w3.org/2000/svg"
   xmlns:svg="http://www.w3.org/2000/svg">
  <defs
     id="defs1" />
  <circle
     style="fill:#ffffff;stroke-width:1.86353"
     id="path2"
     cx="523.5816"
     cy="539.93225"
     r="500" />
  <g
     id="g1"
     transform="translate(-103.41839,-87.067772)">
    <path
       style="fill:#723be9;stroke:none"
       d="m 617.35069,87.939686 c -10.87646,1.427979 -22.0564,0.703125 -33,1.745362 -31.58307,3.007812 -63.46301,8.553592 -94,17.257692 -139.27567,39.69836 -255.00601,136.58752 -323.69136,263.57251 -133.278549,246.40442 -49.5867,573.32666 191.69136,719.79715 49.60382,30.1126 103.27777,52.2501 160,64.7786 58.7934,12.9857 120.38275,15.173 180,7.1418 C 977.64488,1124.6093 1174.77,850.27746 1148.1809,575.51525 1128.3057,370.13097 990.48509,188.46532 796.35069,117.46203 c -39.71185,-14.5243 -80.98785,-23.05103 -123,-27.116582 -18.03436,-1.745239 -37.93042,-4.778076 -56,-2.405762 m -164,260.861814 c 36.20752,-4.44915 75.4975,-0.28625 112,-0.28625 h 226 92 c 11.66644,0 29.30585,-3.27295 39.98535,1.91974 21.64856,10.52612 -6.80432,32.57471 -14.81561,41.04089 -23.18958,24.50641 -47.80731,47.64826 -71.13037,72.03937 -10.76599,11.25897 -21.97913,27.90448 -38.03937,31.33099 -11.91077,2.5412 -25.84528,0.66901 -38,0.66901 h -75 -237 -88 c -10.15552,0 -26.97549,3.18921 -35.98456,-2.08948 -20.06518,-11.75671 6.30567,-33.23163 14.98456,-41.91052 24.50043,-24.50043 48.48706,-49.48706 73,-74 12.06866,-12.06866 22.0354,-26.50629 40,-28.71375 m -122,207.01777 c 11.52313,-1.80274 24.34183,-0.30402 36,-0.30402 h 70 217 100 c 14.87305,0 33.74988,-3.07605 48,1.59796 13.57025,4.45099 24.20203,19.60407 34,29.40204 24.65051,24.65051 48.4978,50.19904 73.00385,75 8.20642,8.30524 34.30181,28.29303 14.95605,39.44214 -9.29608,5.35736 -24.60065,2.55786 -34.9599,2.55786 h -81 -258 -71 c -11.87836,0 -25.94452,1.92749 -37,-3.32794 -15.3688,-7.30585 -28.64124,-26.38214 -40.08951,-38.67206 -21.61029,-23.19897 -44.4895,-45.57904 -66.91049,-68 -8.93973,-8.9397 -30.48105,-33.55322 -4,-37.69598 m 118,207.0216 c 12.08746,-2.01922 25.74927,-0.32562 38,-0.32562 h 75 234 89 c 10.11682,0 27.96857,-3.41467 36.95679,1.57251 19.1485,10.62488 -7.19275,31.66345 -14.95679,39.42749 -24.51556,24.51562 -48.49164,49.49164 -73,74 -9.98816,9.98816 -20.77509,25.5943 -35,29.2392 -11.29987,2.89538 -25.3681,0.7608 -37,0.7608 h -75 -242 -86 c -9.79376,0 -26.31921,3.13904 -34.95602,-2.08948 -18.44922,-11.16882 9.70782,-32.7124 17.12579,-40.91052 22.0423,-24.36053 47.81277,-45.3609 69.54474,-70 9.79971,-11.11066 22.77579,-29.08344 38.28549,-31.67438 z"
       id="path1" />
  </g>
</svg>
